<svg version="1.1" viewBox="0.0 0.0 480.0 480.0" fill="none" stroke="none" stroke-linecap="square" stroke-miterlimit="10" xmlns:xlink="http://www.w3.org/1999/xlink" xmlns="http://www.w3.org/2000/svg"><clipPath id="p.0"><path d="m0 0l480.0 0l0 480.0l-480.0 0l0 -480.0z" clip-rule="nonzero"/></clipPath><g clip-path="url(#p.0)"><path fill="#000000" fill-opacity="0.0" d="m0 0l480.0 0l0 480.0l-480.0 0z" fill-rule="evenodd"/><path fill="#cc0000" d="m8.3490816E-4 239.99889l0 0c0 -132.3694 107.3066 -239.676 239.676 -239.676l0.647995 0l0 0c63.56604 0 124.528564 25.251505 169.47653 70.19948c44.947968 44.947968 70.19946 105.9105 70.19946 169.47653l0 0l0 0c0 132.3694 -107.30658 239.67601 -239.676 239.67601l-0.647995 0l0 0c-132.3694 0 -239.676 -107.30661 -239.676 -239.67601z" fill-rule="evenodd"/><path fill="#efefef" d="m391.16888 285.58063l0 0c6.0507812 3.618744 8.162079 11.538391 4.7157288 17.688995l-24.960022 44.54532l0 0c-1.6549988 2.9536438 -4.3964844 5.0959473 -7.6213684 5.9556885c-3.2249146 0.8597107 -6.669037 0.36642456 -9.574707 -1.3713684l-264.78918 -158.36115c-6.0507812 -3.6187592 -8.1620865 -11.538406 -4.715721 -17.68901l24.96 -44.54532c3.4463654 -6.150612 11.145317 -8.203079 17.196098 -4.58432z" fill-rule="evenodd"/><path fill="#efefef" d="m202.6955 81.06379l0 0c0 -6.8769836 5.57489 -12.451881 12.451874 -12.451881l49.80603 0l0 0c3.3024597 0 6.469635 1.3118896 8.80481 3.6470718c2.3351746 2.3351746 3.6470642 5.502365 3.6470642 8.80481l0 317.49762c0 6.8769836 -5.57489 12.451904 -12.451874 12.451904l-49.80603 0c-6.8769836 0 -12.451874 -5.5749207 -12.451874 -12.451904z" fill-rule="evenodd"/><path fill="#efefef" d="m370.31766 239.77814l0 0c0 -73.415344 -58.324768 -132.93022 -130.272 -132.93022l0 0c-34.550278 0 -67.68547 14.005104 -92.11621 38.934357c-24.430748 24.92926 -38.155792 58.74057 -38.155792 93.995865l0 0c0 73.415344 58.324768 132.9302 130.272 132.9302l0 0c71.947235 0 130.272 -59.514862 130.272 -132.9302z" fill-rule="evenodd"/><path fill="#efefef" d="m354.28836 127.86516l0 0c6.069275 -3.5854645 13.757721 -1.4928131 17.172607 4.6740723l24.732056 44.663162l0 0c1.6398926 2.961441 2.0548096 6.4855804 1.1534729 9.797119c-0.90133667 3.311554 -3.045105 6.139267 -5.9596863 7.8610687l-265.57693 156.89082c-6.06929 3.5854492 -13.757736 1.4927979 -17.172623 -4.6740723l-24.732056 -44.663177c-3.414894 -6.16687 -1.2630692 -14.072723 4.8062286 -17.658173z" fill-rule="evenodd"/><path fill="#cc0000" d="m324.6168 239.84402l0 0c0 -47.69069 -37.849884 -86.35162 -84.54004 -86.35162l0 0c-22.421417 0 -43.9245 9.097733 -59.77884 25.29181c-15.854324 16.194061 -24.7612 38.15793 -24.7612 61.059814l0 0c0 47.690674 37.84987 86.35159 84.54004 86.35159l0 0c46.690155 0 84.54004 -38.66092 84.54004 -86.35159z" fill-rule="evenodd"/><path fill="#cc0000" d="m512.8302 -310.38837l0 0c0 -132.54834 107.45166 -240.0 240.0 -240.0l0 0l0 0c63.651978 0 124.6969 25.285645 169.70563 70.29437c45.00879 45.008728 70.29437 106.05365 70.29437 169.70563l0 0l0 0c0 132.54832 -107.45166 239.99998 -240.0 239.99998l0 0l0 0c-132.54834 0 -240.0 -107.45166 -240.0 -239.99998z" fill-rule="evenodd"/><path fill="#191919" d="m657.45764 -254.86282l0 0c-2.9788818 -3.0583801 -2.979065 -8.017181 -3.6621094E-4 -11.075806l156.74518 -160.95139c1.4304199 -1.4687805 3.3704834 -2.2939758 5.3934937 -2.2940674c2.0229492 -6.1035156E-5 3.9630737 0.8250122 5.3936157 2.2937012l41.255432 42.35681c2.9788818 3.0584106 2.979004 8.017212 3.6621094E-4 11.075806l-156.74518 160.9514l0 0c-2.9786987 3.0585938 -7.8082275 3.0587616 -10.787109 3.6621094E-4z" fill-rule="evenodd"/><path fill="#191919" d="m832.23926 -435.39093l0 0c-2.6948242 -2.7667236 -2.6949463 -7.2526245 -3.6621094E-4 -10.019562l19.515503 -20.039154l0 0c1.2940063 -1.3287354 3.0490723 -2.0752258 4.8790894 -2.0752869c1.8300781 -6.1035156E-5 3.585205 0.7463379 4.8792725 2.0749512l42.28418 43.413025c2.6948242 2.7667236 2.6949463 7.252655 3.6621094E-4 10.019562l-19.515503 20.039154c-2.69458 2.7669373 -7.0635376 2.7670898 -9.758362 3.3569336E-4z" fill-rule="evenodd"/><path fill="#191919" d="m696.2011 -199.14119l-73.67218 22.504028l21.912476 -75.645584z" fill-rule="evenodd"/><path fill="#cc0000" d="m-196.46548 786.054l0 0c0 -132.36938 107.3066 -239.67603 239.676 -239.67603l0.6479988 0l0 0c63.56603 0 124.52855 25.251526 169.47652 70.19946c44.947983 44.947998 70.19948 105.91052 70.19948 169.47656l0 0l0 0c0 132.36938 -107.306595 239.67596 -239.676 239.67596l-0.6479988 0l0 0c-132.3694 0 -239.676 -107.30658 -239.676 -239.67596z" fill-rule="evenodd"/><path fill="#efefef" d="m-100.46551 659.92505l0 0c0 -12.11554 9.821594 -21.937134 21.93715 -21.937134l244.1257 0c5.8181 0 11.397903 2.3112183 15.511917 6.425232c4.1140137 4.1140137 6.425232 9.693848 6.425232 15.511902l0 136.38171c0 12.11554 -9.821594 21.937134 -21.93715 21.937134l-244.1257 0c-12.115555 0 -21.93715 -9.821594 -21.93715 -21.937134z" fill-rule="evenodd"/><path fill="#efefef" d="m-100.46551 924.3968l0 0c0 -5.328064 4.319252 -9.647339 9.647316 -9.647339l202.8156 0c2.558632 0 5.0124664 1.0164185 6.821686 2.8256836c1.809227 1.8092041 2.8256378 4.2630005 2.8256378 6.8216553l0 0l0 0c0 5.328064 -4.319252 9.647339 -9.647324 9.647339l-202.8156 0c-5.328064 0 -9.647316 -4.319275 -9.647316 -9.647339z" fill-rule="evenodd"/><path fill="#efefef" d="m-100.46551 847.2182l0 0c0 -5.328064 4.319252 -9.647278 9.647316 -9.647278l247.54001 0c2.5586243 0 5.0124664 1.0164185 6.821686 2.8256226c1.8092194 1.8092041 2.8256378 4.2630615 2.8256378 6.8216553l0 0l0 0c0 5.328064 -4.3192596 9.647339 -9.647324 9.647339l-247.54001 0c-5.328064 0 -9.647316 -4.319275 -9.647316 -9.647339z" fill-rule="evenodd"/><path fill="#efefef" d="m-100.46551 885.8075l0 0c0 -5.328064 4.319252 -9.647339 9.647316 -9.647339l268.70538 0c2.5586243 0 5.012451 1.0164185 6.821686 2.8256836c1.8092194 1.8092041 2.8256226 4.2630615 2.8256226 6.8216553l0 0l0 0c0 5.328064 -4.3192444 9.647339 -9.647308 9.647339l-268.70538 0l0 0c-5.328064 0 -9.647316 -4.319275 -9.647316 -9.647339z" fill-rule="evenodd"/><path fill="#cc0000" d="m43.534492 705.6756c22.178474 -57.56018 108.67454 0 0 74.00598c-108.674545 -74.00598 -22.178478 -131.56616 0 -74.00598z" fill-rule="evenodd"/><path fill="#cc0000" d="m-537.3885 -291.61005l0 0c0 -132.36938 107.30661 -239.67596 239.676 -239.67596l0.64801025 0l0 0c63.566025 0 124.52855 25.251465 169.47652 70.19946c44.947968 44.947968 70.19948 105.91049 70.19948 169.4765l0 0l0 0c0 132.36942 -107.306595 239.67601 -239.676 239.67601l-0.64801025 0l0 0c-132.36938 0 -239.676 -107.306595 -239.676 -239.67601z" fill-rule="evenodd"/><path fill="#efefef" d="m-445.63126 -340.5235c5.6099243 14.43808 24.793182 28.756287 38.6026 33.152435c13.809387 4.396179 31.97461 -7.5010986 44.253876 -6.7755127c12.279266 0.72561646 24.478577 4.9989624 29.421692 11.12912c4.943115 6.1301575 -3.215454 15.730255 0.23703003 25.651825c3.4524841 9.92157 18.516449 21.818832 20.477814 33.877563c1.9613647 12.058731 -11.730499 20.487518 -8.709717 38.474808c3.020813 17.987305 16.320496 56.866272 26.834473 69.449005c10.514008 12.582748 24.283936 11.976044 36.249542 6.04747c11.965622 -5.9285736 28.757278 -30.568573 35.54419 -41.61891c6.786911 -11.0503235 0.31269836 -16.81842 5.1772766 -24.68306c4.8645935 -7.8646393 20.04805 -10.768509 24.010254 -22.504791c3.962204 -11.736298 -8.200455 -28.473984 -0.23701477 -47.912994c7.9634247 -19.438965 47.703506 -55.049072 48.017624 -68.72095c0.3141327 -13.671875 -31.460617 1.6924133 -46.132904 -13.310303c-14.672302 -15.002716 -20.794312 -61.945435 -41.90085 -76.70596c-21.106537 -14.760529 -69.79144 -6.5739136 -84.73834 -11.857147c-14.94693 -5.283203 7.3361206 -17.906067 -4.9431458 -19.842163c-12.279236 -1.9360657 -49.195587 -2.2198486 -68.73245 8.225739c-19.536896 10.445587 -39.583496 36.46045 -48.48883 54.447754c-8.905304 17.987305 -10.553009 39.037994 -4.943115 53.476074z" fill-rule="evenodd"/><path fill="#efefef" d="m-178.82329 -205.0169c-2.2364502 3.4078064 0.94044495 10.726425 -0.35411072 15.001236c-1.2945557 4.274811 -6.9820404 6.090042 -7.4132385 10.647659c-0.43121338 4.557617 2.3739777 14.33876 4.8260345 16.698044c2.4520416 2.3592987 4.9235992 5.362488 9.88623 -2.542282c4.962631 -7.9047546 17.16336 -34.844376 19.889557 -44.88629c2.726181 -10.041931 -1.237442 -15.304596 -3.532425 -15.36528c-2.2949982 -0.060668945 -6.3538055 11.59343 -10.237488 15.001251c-3.883667 3.4078217 -10.828125 2.0378418 -13.06456 5.4456635z" fill-rule="evenodd"/></g></svg>