<svg version="1.1" viewBox="0.0 0.0 288.0 288.0" fill="none" stroke="none" stroke-linecap="square" stroke-miterlimit="10" xmlns:xlink="http://www.w3.org/1999/xlink" xmlns="http://www.w3.org/2000/svg"><clipPath id="p.0"><path d="m0 0l288.0 0l0 288.0l-288.0 0l0 -288.0z" clip-rule="nonzero"/></clipPath><g clip-path="url(#p.0)"><path fill="#000000" fill-opacity="0.0" d="m0 0l288.0 0l0 288.0l-288.0 0z" fill-rule="evenodd"/><path fill="#6aa84f" d="m893.6847 1899.8091l0 -115.2478c0 -60.1969 -48.799194 -108.99609 -108.99609 -108.99609l-77.85431 0l0 -34.496338l-62.283447 76.100464l62.283447 76.100464l0 -34.496338l77.85431 0l0 0c14.242249 0 25.787842 11.545654 25.787842 25.787842l0 115.2478z" fill-rule="evenodd"/><path fill="#6aa84f" d="m-329.9993 -60.509575c53.608917 -133.22046 262.68372 0 0 171.28346c-262.68375 -171.28346 -53.608948 -304.50394 0 -171.28346z" fill-rule="evenodd"/><path fill="#6aa84f" d="m89.99857 264.07877l-9.690781 -39.448547l0 0c-58.14923 -26.345123 -81.8561 -83.84892 -54.768734 -132.84799c27.087372 -48.99908 96.10414 -73.45758 159.44579 -56.50517c63.34166 16.952404 100.27846 69.76773 85.333145 122.01643c-14.9453125 52.248703 -76.88162 86.83145 -143.08817 79.894684z" fill-rule="evenodd"/><path fill="#6aa84f" d="m547.2122 -432.00058l-129.6063 134.44095l0 -67.22049l-129.6063 0l0 -134.44095l129.6063 0l0 -67.22046z" fill-rule="evenodd"/></g></svg>