<svg version="1.1" viewBox="0.0 0.0 288.0 288.0" fill="none" stroke="none" stroke-linecap="square" stroke-miterlimit="10" xmlns:xlink="http://www.w3.org/1999/xlink" xmlns="http://www.w3.org/2000/svg"><clipPath id="p.0"><path d="m0 0l288.0 0l0 288.0l-288.0 0l0 -288.0z" clip-rule="nonzero"/></clipPath><g clip-path="url(#p.0)"><path fill="#000000" fill-opacity="0.0" d="m0 0l288.0 0l0 288.0l-288.0 0z" fill-rule="evenodd"/><path fill="#6aa84f" d="m569.5666 -38.81824l0 -115.24777c0 -60.19687 -48.799255 -108.99606 -108.99609 -108.99606l-77.85434 0l0 -34.496338l-62.283447 76.10043l62.283447 76.10043l0 -34.496323l77.85434 0l0 0c14.242249 0 25.787842 11.545624 25.787842 25.787857l0 115.24777z" fill-rule="evenodd"/><path fill="#6aa84f" d="m143.99937 93.490425c53.608917 -133.22047 262.68372 0 0 171.28348c-262.68372 -171.28348 -53.608925 -304.50394 0 -171.28348z" fill-rule="evenodd"/><path fill="#6aa84f" d="m-254.00143 -163.92123l-9.690765 -39.448547l0 0c-58.14923 -26.345123 -81.85611 -83.84894 -54.768738 -132.84799c27.087372 -48.999084 96.10414 -73.45758 159.44579 -56.505188c63.341652 16.952423 100.27846 69.76773 85.333145 122.01645c-14.94532 52.248703 -76.88162 86.83145 -143.08817 79.894684z" fill-rule="evenodd"/><path fill="#6aa84f" d="m547.2122 -432.00058l-129.6063 134.44095l0 -67.22049l-129.6063 0l0 -134.44095l129.6063 0l0 -67.22046z" fill-rule="evenodd"/></g></svg>